<?xml version="1.0" standalone="no"?>
<!DOCTYPE svg PUBLIC "-//W3C//DTD SVG 1.1//EN" "http://www.w3.org/Graphics/SVG/1.1/DTD/svg11.dtd">
<!--Generator: Xara Designer (www.xara.com), SVG filter version: 6.6.0.8-->
<svg fill="none" fill-rule="evenodd" stroke="black" stroke-width="0.501" stroke-linejoin="bevel" stroke-miterlimit="10" font-family="Times New Roman" font-size="16" style="font-variant-ligatures:none" xmlns:xlink="http://www.w3.org/1999/xlink" xmlns="http://www.w3.org/2000/svg" version="1.1" overflow="visible" width="134.005pt" height="138.106pt" viewBox="1271.82 -1364.27 134.005 138.106">
 <defs>
  <style type="text/css">@import url('https://themes.googleusercontent.com/fonts/css?family=Open Sans:400,600');</style>
 </defs>
 <g id="Layer 1" transform="scale(1 -1)">
  <ellipse rx="65.547" ry="65.547" transform="translate(1337.36 1291.7) rotate(137.898)" stroke="none" stroke-linejoin="miter" fill="#f7fdff"/>
  <ellipse rx="55.584" ry="55.584" transform="translate(1342.63 1308.69) rotate(137.898)" fill="#411fe0" stroke="none" stroke-linejoin="miter"/>
  <ellipse rx="55.584" ry="55.584" transform="translate(1350.25 1302.24) rotate(137.898)" fill="#faf5b3" stroke="none" stroke-linejoin="miter"/>
  <rect x="-16.621" y="-16.621" width="33.242" height="33.242" rx="4.7012" ry="4.7012" transform="translate(1291.75 1302.49) rotate(90)" stroke-width="2.548" stroke="#411fe0" fill="#ffffff" stroke-linejoin="miter"/>
  <g id="Group" fill-rule="nonzero" stroke-linejoin="round" stroke-linecap="round" stroke="none" stroke-width="1.133" fill="#411fe0">
   <g id="Group_1">
    <path d="M 1285.84,1290.99 L 1281.59,1290.99 L 1289.33,1312.98 L 1294.24,1312.98 L 1302,1290.99 L 1297.74,1290.99 L 1291.87,1308.47 L 1291.7,1308.47 L 1285.84,1290.99 Z M 1285.98,1299.61 L 1297.57,1299.61 L 1297.57,1296.41 L 1285.98,1296.41 L 1285.98,1299.61 Z" marker-start="none" marker-end="none"/>
   </g>
  </g>
  <rect x="-16.621" y="-16.621" width="33.242" height="33.242" rx="4.7012" ry="4.7012" transform="translate(1335 1302.49) rotate(90)" stroke-width="2.548" stroke="#411fe0" fill="#ffffff" stroke-linejoin="miter"/>
  <g id="Group_2" fill-rule="nonzero" stroke-linejoin="round" stroke-linecap="round" stroke="none" stroke-width="1.133" fill="#411fe0">
   <g id="Group_3">
    <path d="M 1326.84,1290.99 L 1326.84,1312.98 L 1335.25,1312.98 C 1336.84,1312.98 1338.16,1312.73 1339.22,1312.24 C 1340.28,1311.74 1341.07,1311.06 1341.59,1310.2 C 1342.12,1309.34 1342.38,1308.37 1342.38,1307.28 C 1342.38,1306.38 1342.21,1305.62 1341.87,1304.99 C 1341.52,1304.35 1341.06,1303.84 1340.48,1303.45 C 1339.9,1303.05 1339.25,1302.77 1338.54,1302.6 L 1338.54,1302.38 C 1339.32,1302.34 1340.07,1302.1 1340.79,1301.67 C 1341.51,1301.24 1342.1,1300.63 1342.55,1299.84 C 1343.01,1299.05 1343.24,1298.1 1343.24,1296.98 C 1343.24,1295.85 1342.96,1294.82 1342.41,1293.92 C 1341.86,1293.01 1341.03,1292.3 1339.92,1291.78 C 1338.81,1291.25 1337.42,1290.99 1335.74,1290.99 L 1326.84,1290.99 Z M 1330.82,1294.32 L 1335.1,1294.32 C 1336.55,1294.32 1337.59,1294.6 1338.23,1295.15 C 1338.87,1295.71 1339.19,1296.42 1339.19,1297.29 C 1339.19,1297.95 1339.03,1298.54 1338.71,1299.06 C 1338.39,1299.59 1337.93,1300 1337.34,1300.31 C 1336.74,1300.61 1336.03,1300.76 1335.21,1300.76 L 1330.82,1300.76 L 1330.82,1294.32 Z M 1330.82,1303.63 L 1334.76,1303.63 C 1335.44,1303.63 1336.07,1303.76 1336.62,1304.01 C 1337.17,1304.27 1337.6,1304.63 1337.92,1305.1 C 1338.24,1305.56 1338.4,1306.12 1338.4,1306.77 C 1338.4,1307.62 1338.1,1308.32 1337.5,1308.87 C 1336.9,1309.42 1336.02,1309.7 1334.84,1309.7 L 1330.82,1309.7 L 1330.82,1303.63 Z" marker-start="none" marker-end="none"/>
   </g>
  </g>
  <rect x="-16.621" y="-16.621" width="33.242" height="33.242" rx="4.7012" ry="4.7012" transform="translate(1378.26 1302.49) rotate(90)" stroke-width="2.548" stroke="#411fe0" fill="#ffffff" stroke-linejoin="miter"/>
  <g id="Group_4" fill-rule="nonzero" stroke-linejoin="round" stroke-linecap="round" stroke="none" stroke-width="1.133" fill="#411fe0">
   <g id="Group_5">
    <path d="M 1387.71,1305.56 L 1383.7,1305.56 C 1383.58,1306.22 1383.37,1306.81 1383.06,1307.32 C 1382.76,1307.83 1382.37,1308.26 1381.91,1308.62 C 1381.46,1308.98 1380.93,1309.25 1380.35,1309.43 C 1379.77,1309.62 1379.14,1309.71 1378.47,1309.71 C 1377.27,1309.71 1376.21,1309.41 1375.29,1308.81 C 1374.37,1308.21 1373.64,1307.34 1373.12,1306.19 C 1372.6,1305.04 1372.34,1303.64 1372.34,1301.99 C 1372.34,1300.31 1372.6,1298.89 1373.12,1297.74 C 1373.65,1296.59 1374.37,1295.73 1375.29,1295.14 C 1376.21,1294.56 1377.27,1294.27 1378.46,1294.27 C 1379.12,1294.27 1379.73,1294.35 1380.31,1294.53 C 1380.88,1294.7 1381.4,1294.96 1381.87,1295.31 C 1382.33,1295.65 1382.72,1296.07 1383.04,1296.58 C 1383.35,1297.08 1383.57,1297.65 1383.7,1298.29 L 1387.71,1298.27 C 1387.56,1297.23 1387.24,1296.25 1386.74,1295.33 C 1386.24,1294.41 1385.59,1293.61 1384.79,1292.91 C 1383.99,1292.21 1383.05,1291.67 1381.98,1291.28 C 1380.9,1290.89 1379.71,1290.69 1378.4,1290.69 C 1376.47,1290.69 1374.75,1291.14 1373.23,1292.03 C 1371.71,1292.93 1370.52,1294.22 1369.64,1295.91 C 1368.77,1297.6 1368.33,1299.62 1368.33,1301.99 C 1368.33,1304.36 1368.77,1306.38 1369.65,1308.07 C 1370.53,1309.76 1371.73,1311.05 1373.25,1311.94 C 1374.77,1312.84 1376.48,1313.28 1378.4,1313.28 C 1379.63,1313.28 1380.77,1313.11 1381.82,1312.77 C 1382.87,1312.42 1383.81,1311.92 1384.63,1311.26 C 1385.45,1310.6 1386.13,1309.79 1386.66,1308.83 C 1387.2,1307.88 1387.55,1306.79 1387.71,1305.56 Z" marker-start="none" marker-end="none"/>
   </g>
  </g>
 </g>
</svg>
